<svg height="512" viewBox="0 0 512 512" width="512" xmlns="http://www.w3.org/2000/svg"><g><g><rect fill="#2d2d30" height="320" rx="24" width="480" x="16" y="112"/><circle cx="256" cy="272" fill="#57565c" r="136"/><circle cx="256" cy="272" fill="#c2dff6" r="104"/><circle cx="256" cy="272" fill="#83d8f4" r="40"/><path d="m392 144h72v32h-72z" fill="#ffda44"/><path d="m64 88h64v24h-64z" fill="#57565c"/><circle cx="68" cy="164" fill="#d80027" r="28"/></g><g><path d="m472 104h-336v-16a8 8 0 0 0 -8-8h-64a8 8 0 0 0 -8 8v16h-16a32.036 32.036 0 0 0 -32 32v272a32.036 32.036 0 0 0 32 32h432a32.036 32.036 0 0 0 32-32v-272a32.036 32.036 0 0 0 -32-32zm-400-8h48v8h-48zm416 312a16.021 16.021 0 0 1 -16 16h-432a16.021 16.021 0 0 1 -16-16v-272a16.021 16.021 0 0 1 16-16h432a16.021 16.021 0 0 1 16 16z"/><path d="m256 128c-79.4 0-144 64.6-144 144s64.6 144 144 144 144-64.6 144-144-64.6-144-144-144zm0 272a128 128 0 1 1 128-128 128.145 128.145 0 0 1 -128 128z"/><path d="m256 160a112 112 0 1 0 112 112 112.127 112.127 0 0 0 -112-112zm0 208a96 96 0 1 1 96-96 96.108 96.108 0 0 1 -96 96z"/><path d="m256 224a48 48 0 1 0 48 48 48.054 48.054 0 0 0 -48-48zm0 80a32 32 0 1 1 32-32 32.036 32.036 0 0 1 -32 32z"/><path d="m464 136h-72a8 8 0 0 0 -8 8v32a8 8 0 0 0 8 8h72a8 8 0 0 0 8-8v-32a8 8 0 0 0 -8-8zm-8 32h-56v-16h56z"/><path d="m464 400h-64a8 8 0 0 0 0 16h64a8 8 0 0 0 0-16z"/><path d="m464 376h-32a8 8 0 0 0 0 16h32a8 8 0 0 0 0-16z"/><path d="m68 128a36 36 0 1 0 36 36 36.04 36.04 0 0 0 -36-36zm0 56a20 20 0 1 1 20-20 20.023 20.023 0 0 1 -20 20z"/></g></g></svg>